<svg width="11" height="11" viewBox="0 0 11 11" fill="none" xmlns="http://www.w3.org/2000/svg">
<path fill-rule="evenodd" clip-rule="evenodd" d="M5.50001 0.916667C8.02726 0.916667 10.0833 2.97275 10.0833 5.50001C10.0833 8.02726 8.02726 10.0833 5.50001 10.0833C2.97275 10.0833 0.916667 8.02726 0.916667 5.50001C0.916667 2.97275 2.97275 0.916667 5.50001 0.916667ZM5.50001 1.60417C3.35179 1.60417 1.60417 3.35179 1.60417 5.50001C1.60417 7.64822 3.35179 9.39584 5.50001 9.39584C7.64822 9.39584 9.39584 7.64822 9.39584 5.50001C9.39584 3.35179 7.64822 1.60417 5.50001 1.60417ZM5.34472 3.25206C5.53493 3.25206 5.68847 3.40606 5.68847 3.59581V5.62256L7.2491 6.55298C7.41181 6.65061 7.46543 6.86144 7.36827 7.02461C7.30364 7.13232 7.18952 7.19236 7.07264 7.19236C7.0126 7.19236 6.9521 7.17677 6.89664 7.14423L5.16872 6.11344C5.06514 6.05111 5.00097 5.93881 5.00097 5.81781V3.59581C5.00097 3.40606 5.15497 3.25206 5.34472 3.25206Z" fill="#C33F15"/>
</svg>
