<svg width="11" height="11" viewBox="0 0 11 11" fill="none" xmlns="http://www.w3.org/2000/svg">
<path fill-rule="evenodd" clip-rule="evenodd" d="M5.61434 0.916667C7.6993 0.916667 9.3956 2.62579 9.3956 4.7268C9.3956 7.30951 6.43659 9.85418 5.61434 9.85418C4.79209 9.85418 1.83309 7.30951 1.83309 4.7268C1.83309 2.62579 3.52938 0.916667 5.61434 0.916667ZM5.61434 1.60417C3.90842 1.60417 2.52059 3.00529 2.52059 4.7268C2.52059 6.91717 5.09826 9.05118 5.61434 9.16484C6.13043 9.05072 8.7081 6.91672 8.7081 4.7268C8.7081 3.00529 7.32026 1.60417 5.61434 1.60417ZM5.6148 3.20834C6.43613 3.20834 7.10439 3.87659 7.10439 4.69838C7.10439 5.51971 6.43613 6.18751 5.6148 6.18751C4.79347 6.18751 4.12522 5.51971 4.12522 4.69838C4.12522 3.87659 4.79347 3.20834 5.6148 3.20834ZM5.6148 3.89584C5.17251 3.89584 4.81272 4.25563 4.81272 4.69838C4.81272 5.14067 5.17251 5.50001 5.6148 5.50001C6.05709 5.50001 6.41688 5.14067 6.41688 4.69838C6.41688 4.25563 6.05709 3.89584 5.6148 3.89584Z" fill="#C33F15"/>
</svg>
