<svg width="14" height="14" viewBox="0 0 14 14" fill="none" xmlns="http://www.w3.org/2000/svg">
<path d="M9.44475 1.16675C11.2467 1.16675 12.25 2.20508 12.25 3.98425V10.0101C12.25 11.8184 11.2467 12.8334 9.44475 12.8334H4.55583C2.7825 12.8334 1.75 11.8184 1.75 10.0101V3.98425C1.75 2.20508 2.7825 1.16675 4.55583 1.16675H9.44475ZM4.71333 9.18175C4.53833 9.16425 4.36917 9.24592 4.27583 9.39758C4.1825 9.54342 4.1825 9.73592 4.27583 9.88758C4.36917 10.0334 4.53833 10.1209 4.71333 10.0976H9.28667C9.51942 10.0742 9.695 9.87533 9.695 9.64258C9.695 9.40341 9.51942 9.20508 9.28667 9.18175H4.71333ZM9.28667 6.52116H4.71333C4.46192 6.52116 4.25833 6.72591 4.25833 6.97675C4.25833 7.22758 4.46192 7.43175 4.71333 7.43175H9.28667C9.5375 7.43175 9.74167 7.22758 9.74167 6.97675C9.74167 6.72591 9.5375 6.52116 9.28667 6.52116ZM6.45692 3.87925H4.71333V3.88508C4.46192 3.88508 4.25833 4.08925 4.25833 4.34008C4.25833 4.59091 4.46192 4.79508 4.71333 4.79508H6.45692C6.70833 4.79508 6.9125 4.59091 6.9125 4.33366C6.9125 4.08341 6.70833 3.87925 6.45692 3.87925Z" fill="white"/>
</svg>
