<svg width="31" height="35" viewBox="0 0 31 35" fill="none" xmlns="http://www.w3.org/2000/svg">
<path d="M9.52051 4.4039C9.06387 4.4039 8.62594 4.58714 8.30305 4.91333C7.98015 5.23951 7.79876 5.6819 7.79876 6.14319C7.79876 6.60448 7.98015 7.04688 8.30305 7.37306C8.62594 7.69924 9.06387 7.88248 9.52051 7.88248C9.97715 7.88248 10.4151 7.69924 10.738 7.37306C11.0609 7.04688 11.2423 6.60448 11.2423 6.14319C11.2423 5.6819 11.0609 5.23951 10.738 4.91333C10.4151 4.58714 9.97715 4.4039 9.52051 4.4039ZM4.64795 4.4039C5.00367 3.38548 5.66333 2.50361 6.53602 1.87982C7.40871 1.25603 8.45145 0.921051 9.52051 0.921051C10.5896 0.921051 11.6323 1.25603 12.505 1.87982C13.3777 2.50361 14.0374 3.38548 14.3931 4.4039H26.738C27.1947 4.4039 27.6326 4.58714 27.9555 4.91333C28.2784 5.23951 28.4598 5.6819 28.4598 6.14319C28.4598 6.60448 28.2784 7.04688 27.9555 7.37306C27.6326 7.69924 27.1947 7.88248 26.738 7.88248H14.3931C14.0374 8.9009 13.3777 9.78278 12.505 10.4066C11.6323 11.0304 10.5896 11.3653 9.52051 11.3653C8.45145 11.3653 7.40871 11.0304 6.53602 10.4066C5.66333 9.78278 5.00367 8.9009 4.64795 7.88248H2.6335C2.17686 7.88248 1.73892 7.69924 1.41603 7.37306C1.09314 7.04688 0.911743 6.60448 0.911743 6.14319C0.911743 5.6819 1.09314 5.23951 1.41603 4.91333C1.73892 4.58714 2.17686 4.4039 2.6335 4.4039H4.64795ZM19.851 14.8397C19.3944 14.8397 18.9565 15.0229 18.6336 15.3491C18.3107 15.6753 18.1293 16.1177 18.1293 16.5789C18.1293 17.0402 18.3107 17.4826 18.6336 17.8088C18.9565 18.135 19.3944 18.3182 19.851 18.3182C20.3077 18.3182 20.7456 18.135 21.0685 17.8088C21.3914 17.4826 21.5728 17.0402 21.5728 16.5789C21.5728 16.1177 21.3914 15.6753 21.0685 15.3491C20.7456 15.0229 20.3077 14.8397 19.851 14.8397ZM14.9785 14.8397C15.3342 13.8212 15.9939 12.9394 16.8665 12.3156C17.7392 11.6918 18.782 11.3568 19.851 11.3568C20.9201 11.3568 21.9628 11.6918 22.8355 12.3156C23.7082 12.9394 24.3679 13.8212 24.7236 14.8397H26.738C27.1947 14.8397 27.6326 15.0229 27.9555 15.3491C28.2784 15.6753 28.4598 16.1177 28.4598 16.5789C28.4598 17.0402 28.2784 17.4826 27.9555 17.8088C27.6326 18.135 27.1947 18.3182 26.738 18.3182H24.7236C24.3679 19.3367 23.7082 20.2185 22.8355 20.8423C21.9628 21.4661 20.9201 21.8011 19.851 21.8011C18.782 21.8011 17.7392 21.4661 16.8665 20.8423C15.9939 20.2185 15.3342 19.3367 14.9785 18.3182H2.6335C2.17686 18.3182 1.73892 18.135 1.41603 17.8088C1.09314 17.4826 0.911743 17.0402 0.911743 16.5789C0.911743 16.1177 1.09314 15.6753 1.41603 15.3491C1.73892 15.0229 2.17686 14.8397 2.6335 14.8397H14.9785ZM9.52051 25.2754C9.06387 25.2754 8.62594 25.4587 8.30305 25.7848C7.98015 26.111 7.79876 26.5534 7.79876 27.0147C7.79876 27.476 7.98015 27.9184 8.30305 28.2446C8.62594 28.5707 9.06387 28.754 9.52051 28.754C9.97715 28.754 10.4151 28.5707 10.738 28.2446C11.0609 27.9184 11.2423 27.476 11.2423 27.0147C11.2423 26.5534 11.0609 26.111 10.738 25.7848C10.4151 25.4587 9.97715 25.2754 9.52051 25.2754ZM4.64795 25.2754C5.00367 24.257 5.66333 23.3751 6.53602 22.7513C7.40871 22.1275 8.45145 21.7926 9.52051 21.7926C10.5896 21.7926 11.6323 22.1275 12.505 22.7513C13.3777 23.3751 14.0374 24.257 14.3931 25.2754H26.738C27.1947 25.2754 27.6326 25.4587 27.9555 25.7848C28.2784 26.111 28.4598 26.5534 28.4598 27.0147C28.4598 27.476 28.2784 27.9184 27.9555 28.2446C27.6326 28.5707 27.1947 28.754 26.738 28.754H14.3931C14.0374 29.7724 13.3777 30.6543 12.505 31.2781C11.6323 31.9019 10.5896 32.2368 9.52051 32.2368C8.45145 32.2368 7.40871 31.9019 6.53602 31.2781C5.66333 30.6543 5.00367 29.7724 4.64795 28.754H2.6335C2.17686 28.754 1.73892 28.5707 1.41603 28.2446C1.09314 27.9184 0.911743 27.476 0.911743 27.0147C0.911743 26.5534 1.09314 26.111 1.41603 25.7848C1.73892 25.4587 2.17686 25.2754 2.6335 25.2754H4.64795Z" fill="#51ACB2"/>
</svg>
